<?xml version="1.0" encoding="UTF-8"?>
<svg version="1.1" xmlns="http://www.w3.org/2000/svg" viewBox="0 0 335 291">
<path d="M0 0 C0.83311203 -0.0087616 1.66622406 -0.01752319 2.52458191 -0.02655029 C5.2707469 -0.04850748 8.01529407 -0.03400659 10.76147461 -0.01708984 C12.6728903 -0.02045873 14.58430391 -0.02531196 16.49571228 -0.03158569 C20.49800042 -0.03895175 24.49972999 -0.02825895 28.50195312 -0.00488281 C33.63269715 0.02362415 38.7621346 0.00718721 43.89283085 -0.02274513 C47.83827062 -0.04080888 51.78340032 -0.03506466 55.72884941 -0.02210617 C57.62069287 -0.0187706 59.51256448 -0.02286454 61.40437508 -0.03450394 C64.04768642 -0.04719981 66.68887793 -0.02785586 69.33203125 0 C70.11395844 -0.01012115 70.89588562 -0.02024231 71.70150757 -0.03067017 C75.37932683 0.04116074 77.24646127 0.34414822 80.07885742 2.76123047 C81.90509619 6.22276708 82.15080573 8.55768975 82.22998047 12.46582031 C82.2482338 13.13163116 82.26648712 13.79744202 82.28529358 14.48342896 C82.33840487 16.67617108 82.36097748 18.86773768 82.37866211 21.06103516 C82.39915838 22.5969562 82.41979563 24.13287537 82.44056702 25.66879272 C82.47802 28.88831506 82.49744264 32.10743108 82.50732422 35.32714844 C82.52362816 39.42743691 82.60920683 43.52308406 82.71201229 47.6219883 C82.77947294 50.79656165 82.79667232 53.97004637 82.80072212 57.14527512 C82.8108963 58.65477188 82.83909561 60.16427066 82.88661003 61.67305374 C83.24640553 74.03015984 83.24640553 74.03015984 79.20217896 78.94842529 C76.5438276 81.76383964 73.58673766 84.18473642 70.60131836 86.64697266 C69.31943104 88.0348521 68.06102723 89.44574941 66.85131836 90.89697266 C64.15917013 94.05063202 61.30827224 96.96157152 58.35131836 99.86572266 C56.51889349 101.7308694 54.80778701 103.66625011 53.10131836 105.64697266 C50.85573896 108.25344874 48.55580324 110.73631786 46.10131836 113.14697266 C43.68799119 115.51739623 41.42859983 117.95433574 39.22631836 120.52197266 C35.8827575 124.41018596 32.2928653 127.99574871 28.61694336 131.56884766 C24.48316226 135.75346534 24.48316226 135.75346534 23.41381836 141.39697266 C26.0350199 158.37901245 40.14417028 174.67925648 51.60131836 186.64697266 C52.27291992 187.38173828 52.94452148 188.11650391 53.63647461 188.87353516 C67.35630233 203.38834355 85.51164602 213.78603189 103.66381836 221.70947266 C104.53216309 222.09184082 105.40050781 222.47420898 106.29516602 222.86816406 C113.02700033 225.70049984 118.86056522 227.86459505 126.04663086 225.27587891 C127.61610638 224.60919314 129.1758704 223.91928562 130.72631836 223.20947266 C131.5588916 222.84112305 132.39146484 222.47277344 133.24926758 222.09326172 C151.91385591 213.67427994 169.11135447 202.13693655 183.60131836 187.64697266 C184.39924805 186.84904297 185.19717773 186.05111328 186.01928711 185.22900391 C195.57670328 175.1451896 202.26026236 163.41381942 207.60131836 150.64697266 C207.91842773 149.90833984 208.23553711 149.16970703 208.56225586 148.40869141 C210.37864239 143.92167715 211.34243588 139.41511322 212.17163086 134.65087891 C212.60131836 132.64697266 212.60131836 132.64697266 213.60131836 131.64697266 C214.47120767 126.27254879 214.63088079 121.20832869 214.35522461 115.77197266 C213.5379995 90.3455585 213.5379995 90.3455585 218.98022461 83.07275391 C222.17963415 79.67071635 225.72783059 76.90354012 229.54785156 74.23339844 C233.07666458 71.50717956 235.80299952 68.09511329 238.60131836 64.64697266 C241.80779609 60.76033298 241.80779609 60.76033298 245.66381836 60.20947266 C248.95947452 60.70031506 249.65562692 61.03990291 251.60131836 63.64697266 C251.98226929 66.00585938 251.98226929 66.00585938 251.98950195 68.82666016 C251.99895844 69.88626953 252.00841492 70.94587891 252.01815796 72.03759766 C252.00904892 73.76236328 252.00904892 73.76236328 251.99975586 75.52197266 C252.00262604 76.71564453 252.00549622 77.90931641 252.00845337 79.13916016 C252.01049874 81.67790193 252.00493603 84.21665929 251.99243164 86.75537109 C251.97661062 90.57638619 251.9921467 94.39630647 252.01147461 98.21728516 C252.0457572 139.75437301 239.89197318 175.91236074 211.60131836 206.64697266 C211.14499023 207.14326172 210.68866211 207.63955078 210.21850586 208.15087891 C189.99363677 229.8541741 150.64125767 260.66150356 120.28881836 262.33447266 C109.27778224 261.35365767 99.32912339 255.77891778 89.7043457 250.74121094 C87.62309239 249.65830203 85.53009352 248.60186318 83.43334961 247.54931641 C63.75039002 237.55213149 46.64032129 224.75036708 30.60131836 209.64697266 C29.87944336 208.97923828 29.15756836 208.31150391 28.41381836 207.62353516 C0.98888132 181.41502677 -12.74870629 142.35000189 -13.87789249 105.07535172 C-13.97153853 99.56218502 -13.98009129 94.0514087 -13.96508789 88.53759766 C-13.97034097 86.14149742 -13.97662351 83.74539924 -13.98387146 81.3493042 C-13.9941594 76.388042 -13.98987047 71.42706887 -13.97509766 66.46582031 C-13.95771688 60.1094951 -13.98170118 53.7540577 -14.01658726 47.39783096 C-14.03850055 42.47707135 -14.03713796 37.55652766 -14.02882195 32.63573456 C-14.02800312 30.28976196 -14.03485322 27.94377342 -14.04959297 25.59784698 C-14.06697351 22.33923723 -14.05256096 19.08227321 -14.02978516 15.82373047 C-14.04147736 14.86175247 -14.05316956 13.89977448 -14.06521606 12.90864563 C-14.00329476 8.56383012 -13.79694373 6.25896005 -11.38415527 2.55136108 C-7.55905682 0.1113887 -4.40024129 -0.05710393 0 0 Z " fill="#000" transform="translate(33.398681640625,22.35302734375)"/>
<path d="M0 0 C0.57653311 26.45646384 -4.50606493 49.40674572 -22 70 C-22.77859375 70.93585938 -23.5571875 71.87171875 -24.359375 72.8359375 C-37.57390369 88.27712682 -55.16074529 97.72943648 -73 107 C-73.96744141 107.50305664 -74.93488281 108.00611328 -75.93164062 108.52441406 C-82.1545861 111.5758446 -87.03295566 113.56010518 -93.93701172 111.39160156 C-95.99675457 110.56361052 -97.9569739 109.62750596 -99.9375 108.625 C-100.66549805 108.26776855 -101.39349609 107.91053711 -102.14355469 107.54248047 C-115.3719733 100.93395103 -127.56738809 93.38643421 -139 84 C-139.7425 83.39929688 -140.485 82.79859375 -141.25 82.1796875 C-148.75620293 75.95579423 -148.75620293 75.95579423 -149.3515625 71.1796875 C-148.89136415 67.01744911 -147.50159582 65.91054166 -144.4375 63.125 C-141.32087489 60.19196291 -138.28440362 57.3143095 -135.5 54.0625 C-134.95601562 53.43472656 -134.41203125 52.80695313 -133.8515625 52.16015625 C-132.40025711 50.46696663 -130.95976089 48.76451097 -129.5234375 47.05859375 C-128.64124891 46.03852259 -127.75843881 45.01898859 -126.875 44 C-126.06804687 43.05125 -125.26109375 42.1025 -124.4296875 41.125 C-122 39 -122 39 -119.42578125 38.42578125 C-116.16820272 39.19689887 -115.30767777 40.53447619 -113.3125 43.1875 C-108.58397058 48.81205469 -103.68954603 52.07630154 -96.421875 53.5078125 C-90.98341955 53.89150721 -87.39402216 52.81795715 -83.2578125 49.29296875 C-78.41440519 44.37414506 -73.98812424 39.09027338 -69.54248047 33.81396484 C-67.45035085 31.35360981 -65.29459254 28.95461485 -63.125 26.5625 C-59.84349896 22.94257528 -56.61035643 19.28570671 -53.41015625 15.59375 C-52.31584855 14.3569701 -51.16771869 13.16771869 -50 12 C-45.98859065 12.32524941 -43.36149259 13.89906713 -40 16 C-34.03293507 19.23926382 -27.52552423 18.68480066 -21.16796875 16.9609375 C-16.06341617 14.93774403 -12.7964011 11.27628083 -9.125 7.3125 C-7.81944891 5.92947944 -6.5097643 4.55034518 -5.1953125 3.17578125 C-4.62828613 2.56645752 -4.06125977 1.95713379 -3.47705078 1.3293457 C-2 0 -2 0 0 0 Z " fill="#000" transform="translate(241,123)"/>
<path d="M0 0 C2 2 2 2 2.32421875 4.4765625 C1.87370695 9.37248596 0.3713454 13.72923312 -1.1875 18.375 C-1.8335399 20.35409925 -2.47937197 22.33326635 -3.125 24.3125 C-3.4446875 25.281875 -3.764375 26.25125 -4.09375 27.25 C-7.31826061 37.03472184 -10.38640886 46.78573344 -12.5690918 56.86279297 C-13.37558122 60.36790282 -13.98095202 62.87604665 -17 65 C-19.75 65.6875 -19.75 65.6875 -23 65 C-25.64658748 62.57682575 -27.78333718 59.8124245 -30 57 C-31.31635024 55.64989719 -32.63973902 54.30585054 -34 53 C-41.77740957 56.25399665 -47.53382018 64.3548511 -52.921875 70.63671875 C-59.36804537 77.96742001 -66.17353763 84.99037116 -72.85546875 92.10546875 C-74.13288468 93.46607807 -75.41022896 94.82675466 -76.6875 96.1875 C-77.31035889 96.85088379 -77.93321777 97.51426758 -78.57495117 98.19775391 C-83.39913431 103.34261791 -88.17485834 108.5296652 -92.92578125 113.7421875 C-96.79400082 117.95279185 -96.79400082 117.95279185 -100 118.6875 C-105.99350869 118.56237456 -110.01653349 112.91151555 -114 109 C-115.96985388 107.29149307 -117.97936367 105.64841385 -120 104 C-121.15039081 105.15039081 -122.30044707 106.30111734 -123.44921875 107.453125 C-124.50916662 108.51040298 -125.57454233 109.56225995 -126.64453125 110.609375 C-130.99481874 114.89092205 -135.03252563 119.36376575 -139 124 C-139.89571402 125.04307122 -140.7915573 126.08603145 -141.6875 127.12890625 C-142.17355713 127.69585205 -142.65961426 128.26279785 -143.16040039 128.84692383 C-144.18311806 130.03772364 -145.20837317 131.22634861 -146.23608398 132.4128418 C-148.95302907 135.56004367 -151.5997178 138.73940776 -154.16015625 142.015625 C-154.67811768 142.66192871 -155.1960791 143.30823242 -155.72973633 143.97412109 C-156.71936711 145.21151716 -157.69048911 146.46402164 -158.6394043 147.73291016 C-161.12957635 150.80310632 -162.8737613 151.9656439 -166.703125 153.0078125 C-173.16375359 152.48194738 -177.37290414 146.43902752 -181.5 142 C-182.42519024 141.03464044 -183.35225871 140.07107725 -184.28125 139.109375 C-186.53992689 136.75658658 -188.77784658 134.38722768 -191 132 C-194.81443478 133.27147826 -195.79325021 134.97245743 -198.25 138.125 C-201.43370618 142.1175118 -204.67580494 145.80046606 -208.33984375 149.34765625 C-210.04384226 151.04363594 -211.61714083 152.80489696 -213.1875 154.625 C-213.75726563 155.27726563 -214.32703125 155.92953125 -214.9140625 156.6015625 C-216.07580311 157.93734664 -217.23462188 159.27574289 -218.38183594 160.62402344 C-219.92596378 162.43064307 -221.49256171 164.21579255 -223.0625 166 C-223.80439575 166.88292725 -223.80439575 166.88292725 -224.5612793 167.78369141 C-227.00376303 170.52435479 -228.51625369 171.90563961 -232.1640625 172.6171875 C-235.61263382 171.86667198 -236.39460029 171.03028204 -238.3125 168.125 C-238.80363281 167.40570313 -239.29476562 166.68640625 -239.80078125 165.9453125 C-242.17962685 162.0864685 -242.50206598 159.58553596 -242 155 C-240.18048798 152.68452904 -238.60328678 150.98024707 -236.4375 149.0625 C-235.32115982 148.0135854 -234.20656709 146.96280784 -233.09375 145.91015625 C-232.55492187 145.40887207 -232.01609375 144.90758789 -231.4609375 144.39111328 C-229.6699627 142.68573654 -228.04064675 140.88212571 -226.4375 139 C-223.64678549 135.73183794 -220.78183473 132.53988942 -217.875 129.375 C-217.18639893 128.62464478 -217.18639893 128.62464478 -216.48388672 127.85913086 C-213.84821703 124.9931207 -211.19998871 122.13919514 -208.54296875 119.29296875 C-207.96369629 118.67180176 -207.38442383 118.05063477 -206.78759766 117.41064453 C-205.66524459 116.20823684 -204.54130338 115.00730894 -203.41552734 113.80810547 C-201.08397195 111.31099585 -198.89490082 108.86125396 -196.828125 106.1328125 C-195 104 -195 104 -191.6875 103.3125 C-184.40466567 104.67031657 -180.26068552 110.66872538 -175.64453125 116.09765625 C-173.5426894 118.529003 -171.30634883 120.76354053 -169 123 C-165.77555746 121.92518582 -165.16725333 121.32427942 -163.0625 118.8125 C-162.45019531 118.09191406 -161.83789062 117.37132812 -161.20703125 116.62890625 C-160.11455078 115.32759766 -160.11455078 115.32759766 -159 114 C-157.08830592 111.74574393 -155.17001796 109.49716844 -153.25 107.25 C-152.73598633 106.64736328 -152.22197266 106.04472656 -151.69238281 105.42382812 C-147.44572373 100.4671931 -143.0545803 95.66689207 -138.5859375 90.91015625 C-135.25523418 87.16185719 -132.37522977 83.13027584 -129.55859375 78.984375 C-126.17564299 76.36065136 -123.80316272 76.15721248 -119.58325195 76.36425781 C-114.77739753 77.54698581 -112.05863188 80.8940496 -108.875 84.5 C-108.2046875 85.21542969 -107.534375 85.93085937 -106.84375 86.66796875 C-105.20406315 88.42477609 -103.59228212 90.20030638 -102 92 C-94.65538834 85.78751071 -87.98876423 79.23182777 -81.71484375 71.93359375 C-80.03995701 70.04505403 -78.30052413 68.26844352 -76.5 66.5 C-73.4700631 63.51719546 -70.66611922 60.3951045 -67.890625 57.17578125 C-65.00398769 53.85376269 -62.03657516 50.60532488 -59.08203125 47.34375 C-57.3487464 45.39258506 -55.69158828 43.41256175 -54.0625 41.375 C-53.381875 40.59125 -52.70125 39.8075 -52 39 C-51.34 39 -50.68 39 -50 39 C-52.29599293 36.63225729 -54.52805082 34.37511672 -57.11328125 32.3203125 C-62.8078177 27.76872919 -62.8078177 27.76872919 -63.8125 23.75 C-63 21 -63 21 -61.04785156 19.54492188 C-56.96069502 17.47318793 -52.75255988 16.01242983 -48.421875 14.53125 C-47.49586487 14.20966919 -46.56985474 13.88808838 -45.61578369 13.5567627 C-42.66231788 12.53256645 -39.70621072 11.51624261 -36.75 10.5 C-34.7771692 9.81691017 -32.80451105 9.13332146 -30.83203125 8.44921875 C-26.36555403 6.90249163 -21.89901366 5.35607087 -17.42590332 3.82861328 C-15.77946915 3.26624247 -14.13457213 2.69935508 -12.49108887 2.12841797 C-11.69642212 1.85594238 -10.90175537 1.5834668 -10.08300781 1.30273438 C-9.02669159 0.93746643 -9.02669159 0.93746643 -7.94903564 0.56481934 C-5.21012138 -0.22890229 -2.82142263 -0.34407593 0 0 Z " fill="#000" transform="translate(312,11)"/>
<path d="M0 0 C1.29550781 -0.09087891 1.29550781 -0.09087891 2.6171875 -0.18359375 C5.125 0.4375 5.125 0.4375 7.44921875 2.7421875 C10.20981903 7.46298146 9.41018274 12.7384012 9.0625 18 C9.0015918 19.54204102 9.0015918 19.54204102 8.93945312 21.11523438 C8.57829844 27.82923048 7.59470496 31.66843686 3.0625 36.75 C1.125 38.4375 1.125 38.4375 -0.875 38.4375 C-1.19017578 39.46230469 -1.19017578 39.46230469 -1.51171875 40.5078125 C-3.31708701 44.38754372 -5.81653234 47.17422338 -8.6875 50.3125 C-9.20892578 50.91835937 -9.73035156 51.52421875 -10.26757812 52.1484375 C-11.83203125 53.8671875 -11.83203125 53.8671875 -14.875 56.4375 C-18.57659241 56.49250137 -20.9829695 54.97251665 -24 52.9375 C-30.01901226 48.90921164 -35.75322777 48.55397187 -42.875 49.4375 C-49.75881703 52.106967 -54.89882726 58.21927145 -59.890625 63.47363281 C-61.1846869 64.82830052 -62.52631315 66.13720597 -63.875 67.4375 C-64.535 67.4375 -65.195 67.4375 -65.875 67.4375 C-65.97647154 60.40841001 -66.04649565 53.37950911 -66.09472656 46.34985352 C-66.11483418 43.95883119 -66.1421243 41.56785799 -66.17675781 39.17700195 C-66.22531151 35.73897169 -66.24797774 32.30159196 -66.265625 28.86328125 C-66.28627014 27.79539871 -66.30691528 26.72751617 -66.32818604 25.62727356 C-66.32950117 21.2714482 -66.29866501 18.26221282 -64.28808594 14.34838867 C-59.53152046 10.58173165 -53.88897961 10.19732732 -48.01953125 9.53515625 C-40.16502819 8.54499524 -32.48711332 7.03107666 -24.75415039 5.35083008 C-22.52042633 4.86586537 -20.2848287 4.39036285 -18.04882812 3.91601562 C-12.04378776 2.62981765 -6.06760732 0.2970787 0 0 Z " fill="#000" transform="translate(224.875,25.5625)"/>
<path d="M0 0 C3.23702737 0.76226774 4.06905427 2.0553139 6.046875 4.6953125 C12.64922842 12.59322207 19.2909594 15.30394805 29.421875 16.5703125 C29.421875 34.7203125 29.421875 52.8703125 29.421875 71.5703125 C21.54117531 71.5703125 21.54117531 71.5703125 17.56640625 69.4453125 C16.70249268 68.99003174 15.8385791 68.53475098 14.94848633 68.06567383 C14.05282959 67.57220459 13.15717285 67.07873535 12.234375 66.5703125 C10.83771606 65.81754028 10.83771606 65.81754028 9.4128418 65.04956055 C-1.36996472 59.16470045 -11.1160378 52.413219 -20.578125 44.5703125 C-21.18785156 44.08433594 -21.79757813 43.59835938 -22.42578125 43.09765625 C-29.32876039 37.55152805 -29.32876039 37.55152805 -29.93359375 32.74609375 C-29.46825148 28.58869523 -28.07688382 27.47827507 -25.015625 24.6953125 C-21.89899989 21.76227541 -18.86252862 18.884622 -16.078125 15.6328125 C-15.53414062 15.00503906 -14.99015625 14.37726563 -14.4296875 13.73046875 C-12.97838211 12.03727913 -11.53788589 10.33482347 -10.1015625 8.62890625 C-9.21937391 7.60883509 -8.33656381 6.58930109 -7.453125 5.5703125 C-6.64617187 4.6215625 -5.83921875 3.6728125 -5.0078125 2.6953125 C-2.578125 0.5703125 -2.578125 0.5703125 0 0 Z " fill="#000" transform="translate(121.578125,161.4296875)"/>
<path d="M0 0 C0.69912986 32.08229248 -8.34998828 55.86794838 -30.3359375 79.3125 C-33.38082532 82.38417568 -36.31429109 84.75652501 -40 87 C-40.33 87 -40.66 87 -41 87 C-41 63.57 -41 40.14 -41 16 C-39.02 16.66 -37.04 17.32 -35 18 C-32.53190712 18.34630908 -32.53190712 18.34630908 -30.125 18.3125 C-28.95324219 18.33763672 -28.95324219 18.33763672 -27.7578125 18.36328125 C-19.20566613 17.23672373 -14.79764605 13.43689911 -9.125 7.3125 C-7.81944891 5.92947944 -6.5097643 4.55034518 -5.1953125 3.17578125 C-4.62828613 2.56645752 -4.06125977 1.95713379 -3.47705078 1.3293457 C-2 0 -2 0 0 0 Z " fill="#000" transform="translate(241,123)"/>
<path d="M0 0 C0.4587354 21.05085787 -1.38822719 46.51607698 -16.70703125 62.81640625 C-17.34705078 63.40228516 -17.34705078 63.40228516 -18 64 C-19 63 -19 63 -19.12025452 61.17137146 C-19.11803391 60.37417191 -19.11581329 59.57697235 -19.11352539 58.75561523 C-19.11344986 57.85475693 -19.11337433 56.95389862 -19.11329651 56.02574158 C-19.10813522 55.04658279 -19.10297394 54.06742401 -19.09765625 53.05859375 C-19.0962413 52.06118668 -19.09482635 51.0637796 -19.09336853 50.03614807 C-19.08775114 46.83656876 -19.07519571 43.63705831 -19.0625 40.4375 C-19.05748724 38.27408955 -19.05292395 36.11067801 -19.04882812 33.94726562 C-19.03777607 28.63148675 -19.02102104 23.31574829 -19 18 C-19.66 17.67 -20.32 17.34 -21 17 C-20.14921875 16.47921875 -19.2984375 15.9584375 -18.421875 15.421875 C-14.54130846 12.83635064 -11.45981617 9.60739393 -8.25 6.25 C-2.26766595 0 -2.26766595 0 0 0 Z " fill="#000" transform="translate(241,123)"/>
<path d="M0 0 C1.2593058 -0.0010952 1.2593058 -0.0010952 2.54405212 -0.00221252 C5.30957419 0.00126147 8.0733965 0.0401125 10.83862305 0.0793457 C12.75960876 0.08867453 14.6806064 0.09579031 16.60160828 0.1007843 C21.65057383 0.11984864 26.6988169 0.16894476 31.74749756 0.2243042 C36.90212226 0.27550874 42.05686404 0.29830093 47.21166992 0.32348633 C57.32071081 0.37706389 67.42921616 0.46237004 77.5378418 0.56762695 C78.0328418 1.55762695 78.0328418 1.55762695 78.5378418 2.56762695 C76.93504364 2.55097237 76.93504364 2.55097237 75.29986572 2.53398132 C65.23536327 2.43267125 55.17096411 2.35769325 45.10606766 2.30856609 C39.93141701 2.28246015 34.75717761 2.24704365 29.58276367 2.19042969 C24.59013573 2.13614585 19.59790361 2.10621394 14.60500336 2.09324074 C12.69914263 2.08399435 10.79330383 2.06593825 8.88761139 2.03897667 C6.22008777 2.00273404 3.55420438 1.99767951 0.88647461 2 C0.0966922 1.98202362 -0.69309021 1.96404724 -1.50680542 1.94552612 C-5.05563806 1.97898071 -7.09484546 2.28913688 -9.9498291 4.45373535 C-12.14330928 8.97011972 -12.03346384 12.99487629 -12.00805664 17.95751953 C-12.01839432 19.00188171 -12.02873199 20.0462439 -12.03938293 21.12225342 C-12.06884513 24.5690451 -12.07031088 28.01525042 -12.0715332 31.4621582 C-12.08651247 33.85398989 -12.10323908 36.24581123 -12.12164307 38.63761902 C-12.16535682 44.92911246 -12.18532479 51.22046636 -12.20037842 57.51208496 C-12.21993482 63.93367782 -12.26190655 70.35511967 -12.30200195 76.77661133 C-12.37734783 89.3735654 -12.42837421 101.97049637 -12.4621582 114.56762695 C-12.7921582 114.56762695 -13.1221582 114.56762695 -13.4621582 114.56762695 C-13.57900936 100.44224842 -13.66682233 86.31694493 -13.72121906 72.19118214 C-13.74732534 65.63216718 -13.7827435 59.07347666 -13.83935547 52.51464844 C-13.89363652 46.18635044 -13.92357097 39.85836472 -13.93654442 33.52985191 C-13.94579117 31.1140622 -13.96384773 28.69828979 -13.99080849 26.28263283 C-14.02704519 22.90174905 -14.03210557 19.52215965 -14.02978516 16.14111328 C-14.04776154 15.13985916 -14.06573792 14.13860504 -14.08425903 13.10700989 C-14.05122918 8.66663652 -13.89530435 6.24227355 -11.45556641 2.44226074 C-7.59725538 0.02597812 -4.4136757 -0.10091988 0 0 Z " fill="#3AB7EF" transform="translate(33.462158203125,22.432373046875)"/>
<path d="M0 0 C0 0.99 0 1.98 0 3 C-0.33 3.33 -0.66 3.66 -1 4 C-1.13594854 6.55013461 -1.21076102 9.07678528 -1.24609375 11.62890625 C-1.27911782 13.23893597 -1.31232759 14.8489619 -1.34570312 16.45898438 C-1.39247513 18.9858843 -1.43671111 21.51278007 -1.47680664 24.03979492 C-1.71763525 38.51402677 -2.34099793 52.82351616 -6.4375 66.8125 C-6.64181641 67.57369141 -6.84613281 68.33488281 -7.05664062 69.11914062 C-8.13137651 72.91252306 -9.06953742 75.37333258 -12 78 C-11.0234375 74.09375 -10.046875 70.1875 -9.0703125 66.28125 C-8.80589355 65.21003906 -8.80589355 65.21003906 -8.53613281 64.1171875 C-8.03096623 62.12228558 -7.48171045 60.13869738 -6.9296875 58.15625 C-4.96834119 50.10245955 -4.94240165 42.02804021 -5.078125 33.7890625 C-5.09057251 32.96686218 -5.10302002 32.14466187 -5.11584473 31.29754639 C-5.17067054 27.86728894 -5.22755499 24.43772166 -5.32226562 21.00830078 C-5.38887368 18.4767189 -5.42360374 15.94631269 -5.453125 13.4140625 C-5.48206848 12.64317291 -5.51101196 11.87228333 -5.54083252 11.07803345 C-5.56162422 6.89756674 -5.19490645 5.2332629 -2.47167969 1.97412109 C-1.65602539 1.32266113 -0.84037109 0.67120117 0 0 Z " fill="#000" transform="translate(263,97)"/>
<path d="M0 0 C0.69480469 0.1340625 1.38960937 0.268125 2.10546875 0.40625 C1.14640625 0.839375 1.14640625 0.839375 0.16796875 1.28125 C-2.04659204 2.23448451 -2.04659204 2.23448451 -2.89453125 4.40625 C-3.55453125 4.40625 -4.21453125 4.40625 -4.89453125 4.40625 C-5.10078125 4.9425 -5.30703125 5.47875 -5.51953125 6.03125 C-7.47450069 9.4080154 -10.0767682 11.71099839 -12.89453125 14.40625 C-13.55453125 14.07625 -14.21453125 13.74625 -14.89453125 13.40625 C-13.01472678 11.22363811 -11.11793944 9.06134224 -9.20703125 6.90625 C-8.67658203 6.28621094 -8.14613281 5.66617188 -7.59960938 5.02734375 C-3.54237011 0.49717475 -3.54237011 0.49717475 0 0 Z " fill="#000" transform="translate(121.89453125,161.59375)"/>
<path d="M0 0 C0.99 0.33 1.98 0.66 3 1 C-0.3 4.3 -3.6 7.6 -7 11 C-7.66 10.67 -8.32 10.34 -9 10 C-8.27683594 9.29423828 -8.27683594 9.29423828 -7.5390625 8.57421875 C-6.90742187 7.95160156 -6.27578125 7.32898438 -5.625 6.6875 C-4.68527344 5.76517578 -4.68527344 5.76517578 -3.7265625 4.82421875 C-1.81913393 2.91187472 -1.81913393 2.91187472 0 0 Z " fill="#000" transform="translate(104,178)"/>
<path d="M0 0 C0.33 0.66 0.66 1.32 1 2 C-0.09346881 3.34212062 -1.2001575 4.67347975 -2.3125 6 C-3.23482422 7.11375 -3.23482422 7.11375 -4.17578125 8.25 C-6 10 -6 10 -9 10 C-6.03 6.7 -3.06 3.4 0 0 Z " fill="#000" transform="translate(167,162)"/>
<path d="M0 0 C0.66 0.33 1.32 0.66 2 1 C0.90653119 2.34212062 -0.2001575 3.67347975 -1.3125 5 C-2.23482422 6.11375 -2.23482422 6.11375 -3.17578125 7.25 C-5 9 -5 9 -8 9 C-5.36 6.03 -2.72 3.06 0 0 Z " fill="#000" transform="translate(185,88)"/>
<path d="M0 0 C0.99 0.33 1.98 0.66 3 1 C0.6875 3.5 0.6875 3.5 -2 6 C-2.99 6 -3.98 6 -5 6 C-3.35 4.02 -1.7 2.04 0 0 Z " fill="#000" transform="translate(119,142)"/>
</svg>
